# xmcd CD database file
#
# Track frame offsets:
#	150
#	18843
#	34354
#	49212
#	68020
#	82454
#	93916
#	105158
#	134269
#	147484
#	159317
#	168870
#	183462
#	195192
#	206499
#	220602
#
# Disc length: 3095 seconds
#
# Revision: 1
# Processed by: cddbd v1.5.2PL0 Copyright (c) Steve Scherf et al.
# Submitted via: CDex 1.51
#
DISCID=d40c1510
DTITLE=Various Artist - Greatest voices of the world CD3
DYEAR=1900
DGENRE=
TTITLE0=Bassey Shirley - Thats what friends are for
TTITLE1=Washington Dinah - Smoke gets in your eyes
TTITLE2=Sinatra Frank - Blue skies
TTITLE3=Simone Nina - I loves you Porgy
TTITLE4=Lopez Trini - Guantanamera
TTITLE5=Rogers Kenny - Me and Bobby McGhee
TTITLE6=Lee Hooker John - Boom Boom
TTITLE7=Charles Ray - What´d i say
TTITLE8=E King Ben - Spanish harlem
TTITLE9=King Cole Nat - Love is a many splendoured thing
TTITLE10=Bennet Tony with the Count Basie Orchestra - Jeepers Creepers
TTITLE11=Francis Connie - Raining in my heart
TTITLE12=Prima Louis and Keely Smith - I've got you under my skin
TTITLE13=Day Doris - Embraceable you
TTITLE14=Neville Aaron - Tell it like it is
TTITLE15=Turner Ike and Tina - Poor fool
EXTD=
EXTT0=
EXTT1=
EXTT2=
EXTT3=
EXTT4=
EXTT5=
EXTT6=
EXTT7=
EXTT8=
EXTT9=
EXTT10=
EXTT11=
EXTT12=
EXTT13=
EXTT14=
EXTT15=
PLAYORDER=
